<?xml version="1.0" standalone="no"?>
<!DOCTYPE svg PUBLIC "-//W3C//DTD SVG 20010904//EN"
 "http://www.w3.org/TR/2001/REC-SVG-20010904/DTD/svg10.dtd">
<svg version="1.0" xmlns="http://www.w3.org/2000/svg"
 width="434.000000pt" height="543.000000pt" viewBox="0 0 434.000000 543.000000"
 preserveAspectRatio="xMidYMid meet">

<g transform="translate(0.000000,543.000000) scale(0.100000,-0.100000)"
fill="#000000" stroke="none">
<path d="M1764 5356 c-238 -45 -431 -252 -462 -496 l-7 -55 -390 -5 -390 -6
-75 -28 c-164 -62 -281 -168 -355 -321 -58 -118 -67 -179 -63 -411 3 -187 3
-191 30 -231 36 -54 85 -76 180 -81 l78 -4 2 -1532 3 -1531 23 -70 c45 -132
89 -203 187 -301 78 -78 106 -99 186 -137 167 -81 94 -77 1451 -77 1295 0
1264 -1 1395 52 84 34 196 113 256 179 67 74 113 151 151 252 l31 82 3 1543 2
1542 63 0 c87 0 136 16 178 59 55 54 62 94 57 316 -5 207 -14 247 -80 379 -44
89 -171 211 -268 258 -129 64 -161 68 -565 68 l-361 0 -16 87 c-41 215 -190
386 -398 455 -61 21 -86 22 -420 24 -263 2 -374 -1 -426 -10z m784 -394 c47
-34 84 -87 85 -124 l2 -33 -470 -2 c-259 -2 -476 1 -484 6 -33 21 37 132 103
162 38 18 66 19 386 16 343 -2 345 -2 378 -25z m1228 -559 c104 -56 163 -163
145 -267 l-6 -36 -1760 0 -1760 0 -3 51 c-7 109 63 220 161 258 51 20 71 20
1617 18 l1565 -2 41 -22z m-148 -2195 l-3 -1513 -28 -56 c-33 -69 -99 -132
-175 -167 l-57 -27 -1210 0 -1210 0 -57 27 c-104 49 -176 142 -198 257 -6 35
-10 571 -10 1522 l0 1469 1475 0 1475 0 -2 -1512z"/>
<path d="M1337 3075 c-47 -16 -81 -46 -101 -90 -14 -29 -16 -139 -16 -934 0
-885 0 -903 20 -941 68 -134 268 -125 331 15 18 38 19 88 19 925 0 839 -1 887
-19 925 -22 48 -54 79 -103 100 -45 18 -81 19 -131 0z"/>
<path d="M2095 3079 c-39 -11 -80 -50 -105 -99 -20 -38 -20 -59 -20 -927 0
-840 1 -890 19 -928 37 -83 126 -128 207 -107 60 16 100 47 124 97 20 40 20
62 20 939 0 860 -1 898 -19 934 -43 84 -131 119 -226 91z"/>
<path d="M2835 3071 c-46 -21 -79 -54 -94 -94 -8 -19 -11 -315 -11 -928 0
-883 0 -901 20 -939 25 -48 80 -87 138 -96 84 -13 178 48 201 133 7 25 11 333
11 913 0 829 -1 877 -19 915 -45 98 -152 140 -246 96z"/>
</g>
</svg>
